<?xml version="1.0" standalone="no"?>
<!DOCTYPE svg PUBLIC "-//W3C//DTD SVG 1.0//EN" "http://www.w3.org/TR/2001/REC-SVG-20010904/DTD/svg10.dtd">
<svg xmlns="http://www.w3.org/2000/svg" xmlns:xlink="http://www.w3.org/1999/xlink" id="body_1" width="667" height="667">

<defs>
    <clipPath  id="1">

    <path id=""  clip-rule="evenodd" transform="matrix(1 0 0 1 0 0)"  d="M0 500L0 0L0 0L500 0L500 0L500 500L500 500L0 500z" />    </clipPath>
</defs>

<g transform="matrix(1.3333 0 0 1.3333 0 0)">
	<g clip-path="url(#1)" >
    <path id=""  transform="matrix(1 0 0 -1 0 500)"  d="M0 500L0 500L0 500L500.00003 500L500.00003 500L500.00003 -3.0517578E-05L500.00003 -3.0517578E-05L0 -3.0517578E-05z" stroke="#FFFFFF" stroke-width="1.6666667" fill="#FFFFFF" fill-rule="nonzero" />
    <path id=""  transform="matrix(1 0 0 -1 0 500)"  d="M438.69666 171.90567L438.69666 171.90567L438.69666 171.90567L438.69666 171.90567L438.69666 171.90567L438.69666 175.499L438.69666 175.499L438.69666 175.499L438.69666 175.499L438.69666 175.499C 437.8567 177.14789 435.83444 177.97234 432.62997 177.97234L432.62997 177.97234L432.62997 177.97234L432.62997 177.97234L432.62997 177.97234L432.62997 177.97234L432.62997 177.97234C 428.80334 177.53677 426.7811 176.04344 426.56332 173.49232L426.56332 173.49232L426.56332 173.49232L426.56332 173.49232L426.56332 173.49232L426.56332 173.49232L426.56332 173.49232C 426.7811 170.97234 428.80334 169.60344 432.62997 169.38567L432.62997 169.38567L432.62997 169.38567L432.62997 169.38567L432.62997 169.38567L432.62997 169.38567L432.62997 169.38567C 435.83444 169.38567 437.8567 170.22566 438.69666 171.90567zM424.65 184.97232L424.65 184.97232L424.65 184.97232L421.15 190.38567L421.15 190.38567L421.15 190.38567L421.15 190.38567L421.15 190.38567C 425.19443 192.93677 429.87668 194.21233 435.19666 194.21233L435.19666 194.21233L435.19666 194.21233L435.19666 194.21233L435.19666 194.21233L435.19666 194.21233L435.19666 194.21233C 439.02335 194.21233 442.05667 193.15456 444.29666 191.039L444.29666 191.039L444.29666 191.039L444.29666 191.039L444.29666 191.039L444.29666 191.039L444.29666 191.039C 446.50555 188.89233 447.61 185.70343 447.61 181.47234L447.61 181.47234L447.61 181.47234L447.61 181.47234L447.61 162.33899L447.61 162.33899L438.69666 162.33899L438.69666 162.33899L438.69666 164.859L438.69666 164.859L438.69666 164.859L438.69666 164.859L438.69666 164.859C 436.11447 163.17899 433.78113 162.33899 431.69666 162.33899L431.69666 162.33899L431.69666 162.33899L431.69666 162.33899L431.69666 162.33899L431.69666 162.33899L431.69666 162.33899C 427.43445 162.33899 424.24554 163.24121 422.12997 165.04565L422.12997 165.04565L422.12997 165.04565L422.12997 165.04565L422.12997 165.04565L422.12997 165.04565L422.12997 165.04565C 419.98334 166.8501 418.91 169.33899 418.91 172.51233L418.91 172.51233L418.91 172.51233L418.91 172.51233L418.91 172.51233L418.91 172.51233L418.91 172.51233C 418.91 175.499 419.9211 178.159 421.94333 180.49232L421.94333 180.49232L421.94333 180.49232L421.94333 180.49232L421.94333 180.49232L421.94333 180.49232L421.94333 180.49232C 423.93448 182.82565 427.18558 183.99232 431.69666 183.99234L431.69666 183.99234L431.69666 183.99234L431.69666 183.99234L431.69666 183.99234L431.69666 183.99234L431.69666 183.99234C 433.75 183.99232 436.0833 183.35455 438.69666 182.079L438.69666 182.079L438.69666 182.079L438.69666 182.079L438.69666 183.05899L438.69666 183.05899L438.69666 183.05899L438.69666 183.05899L438.69666 183.05899C 438.66556 185.39233 436.97 186.66788 433.61 186.88567L433.61 186.88567L433.61 186.88567L433.61 186.88567L433.61 186.88567L433.61 186.88567L433.61 186.88567C 429.78336 186.88567 426.79666 186.2479 424.65 184.97232L424.65 184.97232L424.65 184.97232zM403.50998 201.86566L403.50998 201.86566L403.50998 201.86566L403.50998 201.86566L403.50998 201.86566L403.50998 201.86566L403.50998 201.86566L403.50998 201.86566C 403.50998 200.59012 403.93 199.53233 404.77002 198.69234L404.77002 198.69234L404.77002 198.69234L404.77002 198.69234L404.77002 198.69234L404.77002 198.69234L404.77002 198.69234C 405.6411 197.85233 406.82333 197.43233 408.31665 197.43233L408.31665 197.43233L408.31665 197.43233L408.31665 197.43233L408.31665 197.43233L408.31665 197.43233L408.31665 197.43233C 409.77887 197.43233 410.94553 197.85233 411.81665 198.69234L411.81665 198.69234L411.81665 198.69234L411.81665 198.69234L411.81665 198.69234L411.81665 198.69234L411.81665 198.69234C 412.65665 199.53233 413.07666 200.59012 413.07666 201.86566L413.07666 201.86566L413.07666 201.86566L413.07666 201.86566L413.07666 201.86566L413.07666 201.86566L413.07666 201.86566C 413.07666 203.14122 412.65665 204.21455 411.81665 205.08566L411.81665 205.08566L411.81665 205.08566L411.81665 205.08566L411.81665 205.08566L411.81665 205.08566L411.81665 205.08566C 410.94553 205.95677 409.74777 206.39233 408.22333 206.39233L408.22333 206.39233L408.22333 206.39233L408.22333 206.39233L408.22333 206.39233L408.22333 206.39233L408.22333 206.39233C 406.79224 206.39233 405.6411 205.95677 404.77002 205.08566L404.77002 205.08566L404.77002 205.08566L404.77002 205.08566L404.77002 205.08566L404.77002 205.08566L404.77002 205.08566C 403.93 204.21455 403.50998 203.14122 403.50998 201.86566zM412.75 162.33899L412.75 162.33899L412.75 162.33899L403.83664 162.33899L403.83664 162.33899L403.83664 194.259L403.83664 194.259L412.75 194.259L412.75 194.259L412.75 162.33899zM376.25668 182.59233L376.25668 182.59233L376.25668 182.59233L376.25668 182.59233L376.25668 182.59233L376.25668 162.33899L376.25668 162.33899L367.29666 162.33899L367.29666 162.33899L367.29666 193.27899L367.29666 193.27899L376.25668 194.259L376.25668 194.259L376.25668 191.36566L376.25668 191.36566L376.25668 191.36566L376.25668 191.36566L376.25668 191.36566C 378.40332 193.26344 380.95444 194.21233 383.91 194.21233L383.91 194.21233L383.91 194.21233L383.91 194.21233L383.91 194.21233L383.91 194.21233L383.91 194.21233C 387.95444 194.21233 391.03442 192.999 393.15 190.57233L393.15 190.57233L393.15 190.57233L393.15 190.57233L393.15 190.57233L393.15 190.57233L393.15 190.57233C 395.26556 188.11455 396.32336 185.28345 396.32333 182.079L396.32333 182.079L396.32333 182.079L396.32333 182.079L396.32333 162.33899L396.32333 162.33899L387.41 162.33899L387.41 162.33899L387.41 179.88567L387.41 179.88567L387.41 179.88567L387.41 179.88567L387.41 179.88567C 387.41 182.00122 386.8811 183.65012 385.82333 184.83234L385.82333 184.83234L385.82333 184.83234L385.82333 184.83234L385.82333 184.83234L385.82333 184.83234L385.82333 184.83234C 384.73444 185.98344 383.11664 186.5901 380.96997 186.65233L380.96997 186.65233L380.96997 186.65233L380.96997 186.65233L380.96997 186.65233L380.96997 186.65233L380.96997 186.65233C 379.13443 186.5279 377.56332 185.17456 376.25668 182.59233zM350.40335 171.90567L350.40335 171.90567L350.40335 171.90567L350.40335 171.90567L350.40335 171.90567L350.40335 175.499L350.40335 175.499L350.40335 175.499L350.40335 175.499L350.40335 175.499C 349.56332 177.14789 347.5411 177.97234 344.33664 177.97234L344.33664 177.97234L344.33664 177.97234L344.33664 177.97234L344.33664 177.97234L344.33664 177.97234L344.33664 177.97234C 340.50998 177.53677 338.4878 176.04344 338.27 173.49232L338.27 173.49232L338.27 173.49232L338.27 173.49232L338.27 173.49232L338.27 173.49232L338.27 173.49232C 338.4878 170.97234 340.50998 169.60344 344.33664 169.38567L344.33664 169.38567L344.33664 169.38567L344.33664 169.38567L344.33664 169.38567L344.33664 169.38567L344.33664 169.38567C 347.5411 169.38567 349.56332 170.22566 350.40335 171.90567zM336.35666 184.97232L336.35666 184.97232L336.35666 184.97232L332.85666 190.38567L332.85666 190.38567L332.85666 190.38567L332.85666 190.38567L332.85666 190.38567C 336.9011 192.93677 341.5833 194.21233 346.90335 194.21233L346.90335 194.21233L346.90335 194.21233L346.90335 194.21233L346.90335 194.21233L346.90335 194.21233L346.90335 194.21233C 350.73 194.21233 353.74774 193.15456 355.95663 191.039L355.95663 191.039L355.95663 191.039L355.95663 191.039L355.95663 191.039L355.95663 191.039L355.95663 191.039C 358.19666 188.89233 359.31665 185.70343 359.31665 181.47234L359.31665 181.47234L359.31665 181.47234L359.31665 181.47234L359.31665 162.33899L359.31665 162.33899L350.40335 162.33899L350.40335 162.33899L350.40335 164.859L350.40335 164.859L350.40335 164.859L350.40335 164.859L350.40335 164.859C 347.79 163.17899 345.4411 162.33899 343.35666 162.33899L343.35666 162.33899L343.35666 162.33899L343.35666 162.33899L343.35666 162.33899L343.35666 162.33899L343.35666 162.33899C 339.12555 162.33899 335.93665 163.24121 333.79 165.04565L333.79 165.04565L333.79 165.04565L333.79 165.04565L333.79 165.04565L333.79 165.04565L333.79 165.04565C 331.67444 166.8501 330.61664 169.33899 330.61664 172.51233L330.61664 172.51233L330.61664 172.51233L330.61664 172.51233L330.61664 172.51233L330.61664 172.51233L330.61664 172.51233C 330.61664 175.499 331.62778 178.159 333.65 180.49232L333.65 180.49232L333.65 180.49232L333.65 180.49232L333.65 180.49232L333.65 180.49232L333.65 180.49232C 335.64114 182.82565 338.87668 183.99232 343.35666 183.99234L343.35666 183.99234L343.35666 183.99234L343.35666 183.99234L343.35666 183.99234L343.35666 183.99234L343.35666 183.99234C 345.4411 183.99232 347.79 183.35455 350.40335 182.079L350.40335 182.079L350.40335 182.079L350.40335 182.079L350.40335 183.05899L350.40335 183.05899L350.40335 183.05899L350.40335 183.05899L350.40335 183.05899C 350.3411 185.39233 348.62997 186.66788 345.27 186.88567L345.27 186.88567L345.27 186.88567L345.27 186.88567L345.27 186.88567L345.27 186.88567L345.27 186.88567C 341.44333 186.88567 338.4722 186.2479 336.35666 184.97232L336.35666 184.97232L336.35666 184.97232zM284.50998 182.73233L284.50998 182.73233L284.50998 182.73233L284.50998 182.73233L284.50998 182.73233L284.50998 162.33899L284.50998 162.33899L275.55 162.33899L275.55 162.33899L275.55 193.27899L275.55 193.27899L284.50998 194.259L284.50998 194.259L284.50998 191.41234L284.50998 191.41234L284.50998 191.41234L284.50998 191.41234L284.50998 191.41234C 286.5011 193.27899 289.05222 194.21233 292.16333 194.21233L292.16333 194.21233L292.16333 194.21233L292.16333 194.21233L292.16333 194.21233L292.16333 194.21233L292.16333 194.21233C 296.17667 194.21233 299.25668 192.999 301.40335 190.57233L301.40335 190.57233L301.40335 190.57233L301.40335 190.57233L301.40335 190.57233L301.40335 190.57233L301.40335 190.57233C 303.7367 192.999 307.23666 194.21233 311.90335 194.21233L311.90335 194.21233L311.90335 194.21233L311.90335 194.21233L311.90335 194.21233L311.90335 194.21233L311.90335 194.21233C 315.94778 194.21233 319.04333 192.999 321.18997 190.57233L321.18997 190.57233L321.18997 190.57233L321.18997 190.57233L321.18997 190.57233L321.18997 190.57233L321.18997 190.57233C 323.30554 188.11455 324.3633 185.28345 324.3633 182.079L324.3633 182.079L324.3633 182.079L324.3633 182.079L324.3633 162.33899L324.3633 162.33899L315.44998 162.33899L315.44998 162.33899L315.44998 179.88567L315.44998 179.88567L315.44998 179.88567L315.44998 179.88567L315.44998 179.88567C 315.44998 182.00122 314.96777 183.65012 314.0033 184.83234L314.0033 184.83234L314.0033 184.83234L314.0033 184.83234L314.0033 184.83234L314.0033 184.83234L314.0033 184.83234C 313.03888 185.98344 311.4833 186.5901 309.33664 186.65233L309.33664 186.65233L309.33664 186.65233L309.33664 186.65233L309.33664 186.65233L309.33664 186.65233L309.33664 186.65233C 307.56332 186.5279 306.03888 185.36122 304.76334 183.15233L304.76334 183.15233L304.76334 183.15233L304.76334 183.15233L304.76334 183.15233L304.76334 183.15233L304.76334 183.15233C 304.6389 182.499 304.57666 181.83011 304.57666 181.14566L304.57666 181.14566L304.57666 181.14566L304.57666 181.14566L304.57666 162.33899L304.57666 162.33899L295.66333 162.33899L295.66333 162.33899L295.66333 179.88567L295.66333 179.88567L295.66333 179.88567L295.66333 179.88567L295.66333 179.88567C 295.66333 182.00122 295.1811 183.65012 294.21667 184.83234L294.21667 184.83234L294.21667 184.83234L294.21667 184.83234L294.21667 184.83234L294.21667 184.83234L294.21667 184.83234C 293.2522 185.98344 291.69666 186.5901 289.55 186.65233L289.55 186.65233L289.55 186.65233L289.55 186.65233L289.55 186.65233L289.55 186.65233L289.55 186.65233C 287.59 186.5279 285.91 185.22122 284.50998 182.73233zM253.33665 169.71233L253.33665 169.71233L253.33665 169.71233L253.33665 169.71233L253.33665 169.71233L253.33665 169.71233L253.33665 169.71233L253.33665 169.71233C 255.76334 169.71233 257.72333 170.53677 259.21667 172.18567L259.21667 172.18567L259.21667 172.18567L259.21667 172.18567L259.21667 172.18567L259.21667 172.18567L259.21667 172.18567C 260.7411 173.80344 261.5033 175.82567 261.5033 178.25233L261.5033 178.25233L261.5033 178.25233L261.5033 178.25233L261.5033 178.25233L261.5033 178.25233L261.5033 178.25233C 261.5033 180.679 260.7411 182.70122 259.21667 184.319L259.21667 184.319L259.21667 184.319L259.21667 184.319L259.21667 184.319L259.21667 184.319L259.21667 184.319C 257.72333 185.9679 255.74779 186.79233 253.29001 186.79233L253.29001 186.79233L253.29001 186.79233L253.29001 186.79233L253.29001 186.79233L253.29001 186.79233L253.29001 186.79233C 250.89447 186.79233 248.93445 185.9679 247.41002 184.319L247.41002 184.319L247.41002 184.319L247.41002 184.319L247.41002 184.319L247.41002 184.319L247.41002 184.319C 245.91667 182.70122 245.17 180.679 245.17 178.25233L245.17 178.25233L245.17 178.25233L245.17 178.25233L245.17 178.25233L245.17 178.25233L245.17 178.25233C 245.17 175.82567 245.91667 173.80344 247.41002 172.18567L247.41002 172.18567L247.41002 172.18567L247.41002 172.18567L247.41002 172.18567L247.41002 172.18567L247.41002 172.18567C 248.93445 170.53677 250.90999 169.71233 253.33665 169.71233zM253.33665 162.01233L253.33665 162.01233L253.33665 162.01233L253.33665 162.01233L253.33665 162.01233L253.33665 162.01233C 248.70111 162.01233 244.84334 163.56789 241.76334 166.67899L241.76334 166.67899L241.76334 166.67899L241.76334 166.67899L241.76334 166.67899L241.76334 166.67899L241.76334 166.67899C 238.65224 169.7901 237.09668 173.64789 237.09666 178.25233L237.09666 178.25233L237.09666 178.25233L237.09666 178.25233L237.09666 178.25233L237.09666 178.25233L237.09666 178.25233C 237.09668 182.88788 238.65224 186.76122 241.76334 189.87233L241.76334 189.87233L241.76334 189.87233L241.76334 189.87233L241.76334 189.87233L241.76334 189.87233L241.76334 189.87233C 244.84334 192.98344 248.70111 194.539 253.33665 194.539L253.33665 194.539L253.33665 194.539L253.33665 194.539L253.33665 194.539L253.33665 194.539L253.33665 194.539C 257.97223 194.539 261.84558 192.98344 264.95667 189.87233L264.95667 189.87233L264.95667 189.87233L264.95667 189.87233L264.95667 189.87233L264.95667 189.87233L264.95667 189.87233C 268.0678 186.76122 269.62335 182.88788 269.62332 178.25233L269.62332 178.25233L269.62332 178.25233L269.62332 178.25233L269.62332 178.25233L269.62332 178.25233L269.62332 178.25233C 269.62335 173.61678 268.0678 169.759 264.95667 166.67899L264.95667 166.67899L264.95667 166.67899L264.95667 166.67899L264.95667 166.67899L264.95667 166.67899L264.95667 166.67899C 261.84558 163.56789 257.97223 162.01233 253.33665 162.01233L253.33665 162.01233L253.33665 162.01233zM209.56334 181.19234L209.56334 181.19234L209.56334 181.19234L209.56334 181.19234L209.56334 181.19234L209.56334 176.01233L209.56334 176.01233L209.56334 176.01233L209.56334 176.01233L209.56334 176.01233C 209.9989 172.43454 212.2389 170.33455 216.28333 169.71233L216.28333 169.71233L216.28333 169.71233L216.28333 169.71233L216.28333 169.71233L216.28333 169.71233L216.28333 169.71233C 221.38554 170.11678 224.26334 172.76122 224.91667 177.64566L224.91667 177.64566L224.91667 177.64566L224.91667 177.64566L224.91667 177.64566L224.91667 177.64566L224.91667 177.64566C 224.6989 183.61899 221.8211 186.71455 216.28333 186.93233L216.28333 186.93233L216.28333 186.93233L216.28333 186.93233L216.28333 186.93233L216.28333 186.93233L216.28333 186.93233C 212.2389 186.27899 209.9989 184.36566 209.56334 181.19234zM209.56334 148.89899L209.56334 148.89899L209.56334 148.89899L200.65001 148.94566L200.65001 148.94566L200.65001 193.27899L200.65001 193.27899L209.56334 194.259L209.56334 194.259L209.56334 191.69234L209.56334 191.69234L209.56334 191.69234L209.56334 191.69234L209.56334 191.69234C 211.9589 193.40344 214.30779 194.259 216.61 194.259L216.61 194.259L216.61 194.259L216.61 194.259L216.61 194.259L216.61 194.259L216.61 194.259C 221.49445 194.259 225.36778 192.65677 228.23001 189.45233L228.23001 189.45233L228.23001 189.45233L228.23001 189.45233L228.23001 189.45233L228.23001 189.45233L228.23001 189.45233C 231.12334 186.27899 232.57 182.56122 232.57 178.299L232.57 178.299L232.57 178.299L232.57 178.299L232.57 178.299L232.57 178.299L232.57 178.299C 232.57 174.03677 231.12334 170.31898 228.23001 167.14566L228.23001 167.14566L228.23001 167.14566L228.23001 167.14566L228.23001 167.14566L228.23001 167.14566L228.23001 167.14566C 225.36778 163.94121 221.49445 162.33899 216.61 162.33899L216.61 162.33899L216.61 162.33899L216.61 162.33899L216.61 162.33899L216.61 162.33899L216.61 162.33899C 213.40558 162.55676 211.05669 163.42789 209.56334 164.95233L209.56334 164.95233L209.56334 164.95233L209.56334 164.95233L209.56334 148.89899zM184.13 173.63232L184.13 173.63232L184.13 173.63232L184.13 173.63232L184.13 173.63232L184.13 194.259L184.13 194.259L193.04333 194.259L193.04333 194.259L193.04333 162.33899L193.04333 162.33899L184.13 162.33899L184.13 162.33899L184.13 165.23233L184.13 165.23233L184.13 165.23233L184.13 165.23233L184.13 165.23233C 181.98334 163.30344 179.43222 162.33899 176.47667 162.33899L176.47667 162.33899L176.47667 162.33899L176.47667 162.33899L176.47667 162.33899L176.47667 162.33899L176.47667 162.33899C 172.43222 162.33899 169.35222 163.56789 167.23666 166.02567L167.23666 166.02567L167.23666 166.02567L167.23666 166.02567L167.23666 166.02567L167.23666 166.02567L167.23666 166.02567C 165.09 168.48343 164.01666 171.299 164.01666 174.47234L164.01666 174.47234L164.01666 174.47234L164.01666 174.47234L164.01666 194.259L164.01666 194.259L172.97667 194.259L172.97667 194.259L172.97667 176.71233L172.97667 176.71233L172.97667 176.71233L172.97667 176.71233L172.97667 176.71233C 172.97667 174.59677 173.50555 172.94788 174.56332 171.76566L174.56332 171.76566L174.56332 171.76566L174.56332 171.76566L174.56332 171.76566L174.56332 171.76566L174.56332 171.76566C 175.62111 170.58344 177.22334 169.96121 179.37 169.89899L179.37 169.89899L179.37 169.89899L179.37 169.89899L179.37 169.89899L179.37 169.89899L179.37 169.89899C 181.23668 170.02344 182.82333 171.26788 184.13 173.63232zM142.55 169.71233L142.55 169.71233L142.55 169.71233L142.55 169.71233L142.55 169.71233L142.55 169.71233L142.55 169.71233L142.55 169.71233C 144.94556 169.71233 146.90556 170.53677 148.43 172.18567L148.43 172.18567L148.43 172.18567L148.43 172.18567L148.43 172.18567L148.43 172.18567L148.43 172.18567C 149.95445 173.80344 150.71667 175.82567 150.71667 178.25233L150.71667 178.25233L150.71667 178.25233L150.71667 178.25233L150.71667 178.25233L150.71667 178.25233L150.71667 178.25233C 150.71667 180.679 149.95445 182.70122 148.43 184.319L148.43 184.319L148.43 184.319L148.43 184.319L148.43 184.319L148.43 184.319L148.43 184.319C 146.90556 185.9679 144.93001 186.79233 142.50334 186.79233L142.50334 186.79233L142.50334 186.79233L142.50334 186.79233L142.50334 186.79233L142.50334 186.79233L142.50334 186.79233C 140.10777 186.79233 138.14778 185.9679 136.62334 184.319L136.62334 184.319L136.62334 184.319L136.62334 184.319L136.62334 184.319L136.62334 184.319L136.62334 184.319C 135.13 182.70122 134.38333 180.679 134.38333 178.25233L134.38333 178.25233L134.38333 178.25233L134.38333 178.25233L134.38333 178.25233L134.38333 178.25233L134.38333 178.25233C 134.38333 175.82567 135.13 173.80344 136.62334 172.18567L136.62334 172.18567L136.62334 172.18567L136.62334 172.18567L136.62334 172.18567L136.62334 172.18567L136.62334 172.18567C 138.14778 170.53677 140.12334 169.71233 142.55 169.71233zM142.55 162.01233L142.55 162.01233L142.55 162.01233L142.55 162.01233L142.55 162.01233L142.55 162.01233C 137.91444 162.01233 134.0411 163.56789 130.93 166.67899L130.93 166.67899L130.93 166.67899L130.93 166.67899L130.93 166.67899L130.93 166.67899L130.93 166.67899C 127.850006 169.7901 126.31 173.64789 126.31 178.25233L126.31 178.25233L126.31 178.25233L126.31 178.25233L126.31 178.25233L126.31 178.25233L126.31 178.25233C 126.31 182.88788 127.850006 186.76122 130.93 189.87233L130.93 189.87233L130.93 189.87233L130.93 189.87233L130.93 189.87233L130.93 189.87233L130.93 189.87233C 134.0411 192.98344 137.91444 194.539 142.55 194.539L142.55 194.539L142.55 194.539L142.55 194.539L142.55 194.539L142.55 194.539L142.55 194.539C 147.18556 194.539 151.0589 192.98344 154.17 189.87233L154.17 189.87233L154.17 189.87233L154.17 189.87233L154.17 189.87233L154.17 189.87233L154.17 189.87233C 157.28111 186.76122 158.83667 182.88788 158.83667 178.25233L158.83667 178.25233L158.83667 178.25233L158.83667 178.25233L158.83667 178.25233L158.83667 178.25233L158.83667 178.25233C 158.83667 173.61678 157.28111 169.759 154.17 166.67899L154.17 166.67899L154.17 166.67899L154.17 166.67899L154.17 166.67899L154.17 166.67899L154.17 166.67899C 151.0589 163.56789 147.18556 162.01233 142.55 162.01233L142.55 162.01233L142.55 162.01233zM110.956665 194.259L110.956665 194.259L110.956665 194.259L110.956665 190.71233L110.956665 190.71233L110.956665 190.71233L110.956665 190.71233L110.956665 190.71233C 113.25888 193.04567 116.043335 194.21233 119.31 194.21233L119.31 194.21233L119.31 194.21233L119.31 194.21233L119.31 194.21233L119.31 194.21233L119.31 194.21233C 120.33667 194.21233 121.316666 194.13455 122.25 193.979L122.25 193.979L122.25 193.979L122.25 193.979L120.850006 185.159L120.850006 185.159L120.850006 185.159L120.850006 185.159L120.850006 185.159C 119.82333 186.09233 118.34555 186.5901 116.41666 186.65233L116.41666 186.65233L116.41666 186.65233L116.41666 186.65233L116.41666 186.65233L116.41666 186.65233L116.41666 186.65233C 114.23889 186.49677 112.418884 184.92566 110.956665 181.939L110.956665 181.939L110.956665 181.939L110.956665 181.939L110.956665 162.33899L110.956665 162.33899L102.043335 162.33899L102.043335 162.33899L102.043335 193.27899L102.043335 193.27899L110.956665 194.259zM76.283325 162.33899L76.283325 162.33899L76.283325 162.33899L76.283325 162.33899L76.283325 162.33899L76.283325 162.33899C 69.50111 162.33899 63.82333 164.62566 59.249996 169.199L59.249996 169.199L59.249996 169.199L59.249996 169.199L59.249996 169.199L59.249996 169.199L59.249996 169.199C 54.676662 173.77234 52.389996 179.48122 52.389996 186.32567L52.389996 186.32567L52.389996 186.32567L52.389996 186.32567L52.389996 186.32567L52.389996 186.32567L52.389996 186.32567C 52.389996 193.04567 54.676662 198.70789 59.249996 203.31233L59.249996 203.31233L59.249996 203.31233L59.249996 203.31233L59.249996 203.31233L59.249996 203.31233L59.249996 203.31233C 63.82333 207.88567 69.50111 210.17233 76.283325 210.17233L76.283325 210.17233L76.283325 210.17233L76.283325 210.17233L76.283325 210.17233L76.283325 210.17233L76.283325 210.17233C 83.096664 210.17233 88.94556 208.04123 93.83 203.77899L93.83 203.77899L93.83 203.77899L93.83 203.77899L87.48333 196.82567L87.48333 196.82567L87.48333 196.82567L87.48333 196.82567L87.48333 196.82567C 84.21667 199.37677 80.48333 200.65233 76.283325 200.65233L76.283325 200.65233L76.283325 200.65233L76.283325 200.65233L76.283325 200.65233L76.283325 200.65233L76.283325 200.65233C 71.99 200.62122 68.52111 199.26788 65.87666 196.59233L65.87666 196.59233L65.87666 196.59233L65.87666 196.59233L65.87666 196.59233L65.87666 196.59233L65.87666 196.59233C 63.26333 193.94789 61.95666 190.55678 61.95666 186.41899L61.95666 186.41899L61.95666 186.41899L61.95666 186.41899L61.95666 186.41899L61.95666 186.41899L61.95666 186.41899C 61.95666 181.97011 63.278885 178.439 65.92333 175.82567L65.92333 175.82567L65.92333 175.82567L65.92333 175.82567L65.92333 175.82567L65.92333 175.82567L65.92333 175.82567C 68.56778 173.21233 72.03667 171.90565 76.33 171.90567L76.33 171.90567L76.33 171.90567L76.33 171.90567L76.33 171.90567L76.33 171.90567L76.33 171.90567C 79.783325 171.90565 82.42777 172.57455 84.263336 173.91232L84.263336 173.91232L84.263336 173.91232L84.263336 173.91232L84.263336 182.12567L84.263336 182.12567L77.916664 182.079L77.916664 182.079L77.916664 191.039L77.916664 191.039L93.83 191.039L93.83 191.039L93.83 168.68567L93.83 168.68567L93.83 168.68567L93.83 168.68567L93.83 168.68567C 88.97666 164.45454 83.12778 162.33899 76.283325 162.33899L76.283325 162.33899L76.283325 162.33899z" stroke="#FFFFFF" stroke-width="6.2222223" fill="#FD2D01" fill-rule="nonzero" />
	</g>
</g>
</svg>